<svg width="477" height="130" viewBox="0 0 477 130" fill="none" xmlns="http://www.w3.org/2000/svg">
<path d="M13.44 92.2C11.36 92.2 10.32 90.92 10.32 88.36V32.2C10.32 23.96 12.6 17.52 17.16 12.88C21.8 8.16 28.16 5.8 36.24 5.8C41.28 5.8 45.88 7.12 50.04 9.75999C54.28 12.4 57.24 15.84 58.92 20.08C60.68 15.76 63.6 12.32 67.68 9.75999C71.84 7.12 76.52 5.8 81.72 5.8C89.8 5.8 96.12 8.16 100.68 12.88C105.32 17.52 107.64 23.96 107.64 32.2V88.36C107.64 90.92 106.56 92.2 104.4 92.2C102.32 92.2 101.28 90.92 101.28 88.36V32.2C101.28 25.32 99.68 20.2 96.48 16.84C93.28 13.48 88.36 11.8 81.72 11.8C75.64 11.8 70.84 13.64 67.32 17.32C63.8 20.92 62.04 25.88 62.04 32.2V88.36C62.04 90.92 61 92.2 58.92 92.2C56.92 92.2 55.92 90.92 55.92 88.36V32.2C55.92 26.04 54.12 21.12 50.52 17.44C46.92 13.68 42.16 11.8 36.24 11.8C29.6 11.8 24.68 13.48 21.48 16.84C18.28 20.2 16.68 25.32 16.68 32.2V88.36C16.68 90.92 15.6 92.2 13.44 92.2ZM144.648 91C140.248 91 136.808 89.84 134.328 87.52C131.928 85.2 130.728 81.96 130.728 77.8V20.2C130.728 16.04 131.928 12.8 134.328 10.48C136.808 8.16 140.248 6.99999 144.648 6.99999H181.848C183.128 6.99999 184.048 7.24 184.608 7.72C185.168 8.12 185.448 8.84 185.448 9.87999C185.448 11.72 184.248 12.64 181.848 12.64H143.928C141.848 12.64 140.168 13.32 138.888 14.68C137.688 15.96 137.088 17.68 137.088 19.84V45.28H172.728C174.008 45.28 174.928 45.52 175.488 46C176.048 46.4 176.328 47.12 176.328 48.16C176.328 50 175.128 50.92 172.728 50.92H137.088V78.16C137.088 80.32 137.688 82.08 138.888 83.44C140.168 84.72 141.848 85.36 143.928 85.36H184.488C185.768 85.36 186.688 85.6 187.248 86.08C187.808 86.48 188.088 87.2 188.088 88.24C188.088 90.08 186.888 91 184.488 91H144.648ZM239.808 92.2C237.728 92.2 236.688 90.92 236.688 88.36V12.64H207.528C205.128 12.48 203.928 11.56 203.928 9.87999C203.928 8.84 204.208 8.12 204.768 7.72C205.328 7.24 206.248 6.99999 207.528 6.99999H272.208C273.488 6.99999 274.408 7.24 274.968 7.72C275.528 8.12 275.808 8.84 275.808 9.87999C275.808 11.72 274.608 12.64 272.208 12.64H243.048V88.36C243.048 90.92 241.968 92.2 239.808 92.2ZM412.117 91C407.717 91 404.277 89.84 401.797 87.52C399.397 85.2 398.197 81.96 398.197 77.8V20.2C398.197 16.04 399.397 12.8 401.797 10.48C404.277 8.16 407.717 6.99999 412.117 6.99999H429.037C436.957 6.99999 443.917 8.76 449.917 12.28C455.997 15.72 460.677 20.64 463.957 27.04C467.237 33.36 468.877 40.72 468.877 49.12C468.877 57.52 467.237 64.88 463.957 71.2C460.677 77.52 456.037 82.4 450.037 85.84C444.037 89.28 437.037 91 429.037 91H412.117ZM427.837 85.36C438.637 85.36 447.077 82.16 453.157 75.76C459.317 69.36 462.397 60.48 462.397 49.12C462.397 41.6 460.997 35.12 458.197 29.68C455.477 24.16 451.517 19.96 446.317 17.08C441.117 14.12 434.957 12.64 427.837 12.64H411.397C409.317 12.64 407.637 13.32 406.357 14.68C405.157 15.96 404.557 17.68 404.557 19.84V78.16C404.557 80.32 405.157 82.08 406.357 83.44C407.637 84.72 409.317 85.36 411.397 85.36H427.837Z" fill="#39442B"/>
<path d="M374 89H328C314.433 89 302.956 85.207 294.912 78.0868C286.919 71.0125 282 60.3779 282 46C282 31.6221 286.919 20.9875 294.912 13.9132C302.956 6.79304 314.433 3 328 3C341.567 3 353.044 6.79304 361.088 13.9132C369.081 20.9875 374 31.6221 374 46V89Z" stroke="#1E40AF" stroke-width="6"/>
<path d="M10.965 125V112.636H18.4266V113.964H12.4621V117.828H15.6013C16.4867 117.828 17.2333 117.973 17.841 118.263C18.4528 118.553 18.9156 118.961 19.2295 119.488C19.5475 120.016 19.7064 120.637 19.7064 121.354C19.7064 122.07 19.5475 122.702 19.2295 123.249C18.9156 123.797 18.4528 124.225 17.841 124.535C17.2333 124.845 16.4867 125 15.6013 125H10.965ZM12.4621 123.696H15.6013C16.1648 123.696 16.6417 123.583 17.0321 123.358C17.4265 123.129 17.7243 122.835 17.9255 122.477C18.1308 122.114 18.2334 121.732 18.2334 121.33C18.2334 120.738 18.006 120.229 17.5513 119.802C17.0965 119.372 16.4465 119.156 15.6013 119.156H12.4621V123.696ZM22.7634 128.477C22.522 128.477 22.3067 128.457 22.1175 128.417C21.9283 128.381 21.7975 128.344 21.7251 128.308L22.0873 127.053C22.4334 127.141 22.7393 127.173 23.0049 127.149C23.2706 127.125 23.506 127.006 23.7112 126.793C23.9205 126.584 24.1117 126.244 24.2848 125.773L24.5504 125.048L21.1214 115.727H22.6669L25.2265 123.116H25.3231L27.8828 115.727H29.4282L25.4921 126.352C25.3151 126.831 25.0957 127.228 24.8341 127.542C24.5725 127.859 24.2687 128.095 23.9225 128.248C23.5804 128.401 23.1941 128.477 22.7634 128.477ZM30.6455 117.055V115.727H38.1796V117.055H35.137V125H33.7122V117.055H30.6455ZM41.5505 122.899L46.0178 115.727H47.6599V125H46.2352V117.828L41.792 125H40.1258V115.727H41.5505V122.899ZM50.1373 125V115.727H51.5621V119.76H52.5038L55.8362 115.727H57.6714L53.9285 120.195L57.7197 125H55.8845L52.8419 121.088H51.5621V125H50.1373ZM62.5214 125.193C61.6843 125.193 60.9498 124.994 60.3179 124.596C59.6901 124.197 59.1991 123.64 58.8449 122.923C58.4948 122.207 58.3197 121.37 58.3197 120.412C58.3197 119.446 58.4948 118.603 58.8449 117.882C59.1991 117.162 59.6901 116.603 60.3179 116.204C60.9498 115.806 61.6843 115.607 62.5214 115.607C63.3585 115.607 64.091 115.806 64.7188 116.204C65.3507 116.603 65.8417 117.162 66.1919 117.882C66.546 118.603 66.7231 119.446 66.7231 120.412C66.7231 121.37 66.546 122.207 66.1919 122.923C65.8417 123.64 65.3507 124.197 64.7188 124.596C64.091 124.994 63.3585 125.193 62.5214 125.193ZM62.5214 123.913C63.1573 123.913 63.6805 123.75 64.091 123.424C64.5015 123.098 64.8054 122.67 65.0026 122.138C65.1998 121.607 65.2984 121.032 65.2984 120.412C65.2984 119.792 65.1998 119.215 65.0026 118.679C64.8054 118.144 64.5015 117.711 64.091 117.381C63.6805 117.051 63.1573 116.886 62.5214 116.886C61.8855 116.886 61.3623 117.051 60.9518 117.381C60.5413 117.711 60.2374 118.144 60.0402 118.679C59.843 119.215 59.7444 119.792 59.7444 120.412C59.7444 121.032 59.843 121.607 60.0402 122.138C60.2374 122.67 60.5413 123.098 60.9518 123.424C61.3623 123.75 61.8855 123.913 62.5214 123.913ZM68.7659 125V115.727H72.5571C73.5552 115.727 74.3481 115.953 74.9357 116.403C75.5233 116.854 75.8171 117.45 75.8171 118.19C75.8171 118.754 75.65 119.19 75.316 119.5C74.9819 119.806 74.5533 120.013 74.0301 120.122C74.3722 120.17 74.7042 120.291 75.0262 120.484C75.3522 120.678 75.6219 120.943 75.8352 121.281C76.0485 121.615 76.1551 122.026 76.1551 122.513C76.1551 122.988 76.0344 123.412 75.7929 123.787C75.5514 124.161 75.2053 124.457 74.7546 124.674C74.3038 124.891 73.7645 125 73.1367 125H68.7659ZM70.1182 123.696H73.1367C73.6277 123.696 74.012 123.579 74.2897 123.346C74.5674 123.112 74.7063 122.795 74.7063 122.392C74.7063 121.913 74.5674 121.537 74.2897 121.263C74.012 120.985 73.6277 120.847 73.1367 120.847H70.1182V123.696ZM70.1182 119.615H72.5571C72.9394 119.615 73.2675 119.563 73.5411 119.458C73.8148 119.349 74.0241 119.196 74.169 118.999C74.3179 118.798 74.3923 118.561 74.3923 118.287C74.3923 117.897 74.2293 117.591 73.9033 117.369C73.5773 117.144 73.1286 117.031 72.5571 117.031H70.1182V119.615ZM79.4113 119.084H82.0676C83.1542 119.084 83.9853 119.359 84.5608 119.911C85.1364 120.462 85.4241 121.161 85.4241 122.006C85.4241 122.561 85.2953 123.066 85.0378 123.521C84.7802 123.972 84.4019 124.332 83.9028 124.602C83.4038 124.867 82.792 125 82.0676 125H78.1798V115.727H79.6045V123.672H82.0676C82.631 123.672 83.0939 123.523 83.4561 123.225C83.8183 122.927 83.9994 122.545 83.9994 122.078C83.9994 121.587 83.8183 121.187 83.4561 120.877C83.0939 120.567 82.631 120.412 82.0676 120.412H79.4113V119.084ZM86.8971 125V115.727H88.3219V125H86.8971ZM92.2225 122.899L96.6899 115.727H98.3319V125H96.9072V117.828L92.464 125H90.7978V115.727H92.2225V122.899ZM95.7481 112.636H97.0762C97.0762 113.288 96.8508 113.822 96.4001 114.236C95.9493 114.651 95.3376 114.858 94.5649 114.858C93.8042 114.858 93.1985 114.651 92.7477 114.236C92.301 113.822 92.0776 113.288 92.0776 112.636H93.4058C93.4058 112.95 93.4923 113.226 93.6654 113.463C93.8424 113.701 94.1423 113.82 94.5649 113.82C94.9874 113.82 95.2893 113.701 95.4704 113.463C95.6555 113.226 95.7481 112.95 95.7481 112.636ZM109.226 125.193C108.356 125.193 107.608 124.988 106.98 124.577C106.352 124.167 105.869 123.601 105.531 122.881C105.193 122.161 105.024 121.338 105.024 120.412C105.024 119.47 105.197 118.639 105.543 117.919C105.893 117.194 106.38 116.629 107.004 116.222C107.632 115.812 108.364 115.607 109.202 115.607C109.854 115.607 110.441 115.727 110.964 115.969C111.488 116.21 111.916 116.548 112.25 116.983C112.584 117.418 112.791 117.925 112.872 118.504H111.447C111.339 118.082 111.097 117.707 110.723 117.381C110.353 117.051 109.854 116.886 109.226 116.886C108.67 116.886 108.183 117.031 107.765 117.321C107.35 117.607 107.026 118.011 106.793 118.534C106.563 119.054 106.449 119.663 106.449 120.364C106.449 121.08 106.561 121.704 106.787 122.235C107.016 122.766 107.338 123.179 107.753 123.473C108.171 123.766 108.662 123.913 109.226 123.913C109.596 123.913 109.932 123.849 110.234 123.72C110.536 123.591 110.791 123.406 111.001 123.165C111.21 122.923 111.359 122.634 111.447 122.295H112.872C112.791 122.843 112.592 123.336 112.274 123.775C111.96 124.209 111.544 124.555 111.025 124.813C110.51 125.066 109.91 125.193 109.226 125.193ZM118.71 125.193C117.817 125.193 117.046 124.996 116.398 124.602C115.754 124.203 115.257 123.648 114.907 122.935C114.561 122.219 114.388 121.386 114.388 120.436C114.388 119.486 114.561 118.649 114.907 117.925C115.257 117.196 115.744 116.629 116.368 116.222C116.996 115.812 117.728 115.607 118.566 115.607C119.049 115.607 119.525 115.687 119.996 115.848C120.467 116.009 120.896 116.271 121.282 116.633C121.669 116.991 121.976 117.466 122.206 118.058C122.435 118.649 122.55 119.378 122.55 120.243V120.847H115.402V119.615H121.101C121.101 119.092 120.996 118.625 120.787 118.214C120.582 117.804 120.288 117.48 119.906 117.243C119.527 117.005 119.081 116.886 118.566 116.886C117.998 116.886 117.507 117.027 117.093 117.309C116.682 117.587 116.366 117.949 116.145 118.396C115.923 118.842 115.813 119.321 115.813 119.832V120.653C115.813 121.354 115.934 121.947 116.175 122.434C116.42 122.917 116.761 123.286 117.195 123.539C117.63 123.789 118.135 123.913 118.71 123.913C119.085 123.913 119.423 123.861 119.725 123.756C120.031 123.648 120.294 123.487 120.516 123.273C120.737 123.056 120.908 122.786 121.029 122.464L122.405 122.851C122.26 123.318 122.017 123.728 121.675 124.082C121.333 124.433 120.91 124.706 120.407 124.903C119.904 125.097 119.338 125.193 118.71 125.193ZM124.585 128.477V115.727H125.962V117.2H126.131C126.235 117.039 126.38 116.834 126.565 116.585C126.755 116.331 127.024 116.106 127.374 115.908C127.728 115.707 128.207 115.607 128.811 115.607C129.592 115.607 130.28 115.802 130.876 116.192C131.471 116.583 131.936 117.136 132.27 117.852C132.604 118.569 132.771 119.414 132.771 120.388C132.771 121.37 132.604 122.221 132.27 122.941C131.936 123.658 131.473 124.213 130.882 124.608C130.29 124.998 129.608 125.193 128.835 125.193C128.24 125.193 127.763 125.095 127.404 124.897C127.046 124.696 126.771 124.469 126.577 124.215C126.384 123.958 126.235 123.744 126.131 123.575H126.01V128.477H124.585ZM125.986 120.364C125.986 121.064 126.088 121.682 126.294 122.217C126.499 122.748 126.799 123.165 127.193 123.467C127.588 123.764 128.071 123.913 128.642 123.913C129.238 123.913 129.735 123.756 130.133 123.442C130.536 123.125 130.837 122.698 131.039 122.163C131.244 121.623 131.347 121.024 131.347 120.364C131.347 119.712 131.246 119.124 131.045 118.601C130.848 118.074 130.548 117.657 130.145 117.351C129.747 117.041 129.246 116.886 128.642 116.886C128.063 116.886 127.576 117.033 127.181 117.327C126.787 117.617 126.489 118.023 126.288 118.547C126.086 119.066 125.986 119.671 125.986 120.364ZM134.813 125V115.727H138.604C139.602 115.727 140.395 115.953 140.982 116.403C141.57 116.854 141.864 117.45 141.864 118.19C141.864 118.754 141.697 119.19 141.363 119.5C141.029 119.806 140.6 120.013 140.077 120.122C140.419 120.17 140.751 120.291 141.073 120.484C141.399 120.678 141.669 120.943 141.882 121.281C142.095 121.615 142.202 122.026 142.202 122.513C142.202 122.988 142.081 123.412 141.84 123.787C141.598 124.161 141.252 124.457 140.801 124.674C140.35 124.891 139.811 125 139.183 125H134.813ZM136.165 123.696H139.183C139.674 123.696 140.059 123.579 140.336 123.346C140.614 123.112 140.753 122.795 140.753 122.392C140.753 121.913 140.614 121.537 140.336 121.263C140.059 120.985 139.674 120.847 139.183 120.847H136.165V123.696ZM136.165 119.615H138.604C138.986 119.615 139.314 119.563 139.588 119.458C139.862 119.349 140.071 119.196 140.216 118.999C140.365 118.798 140.439 118.561 140.439 118.287C140.439 117.897 140.276 117.591 139.95 117.369C139.624 117.144 139.175 117.031 138.604 117.031H136.165V119.615ZM145.651 122.899L150.119 115.727H151.761V125H150.336V117.828L145.893 125H144.227V115.727H145.651V122.899ZM158.005 125.193C157.136 125.193 156.387 124.988 155.759 124.577C155.132 124.167 154.649 123.601 154.311 122.881C153.972 122.161 153.803 121.338 153.803 120.412C153.803 119.47 153.976 118.639 154.323 117.919C154.673 117.194 155.16 116.629 155.784 116.222C156.411 115.812 157.144 115.607 157.981 115.607C158.633 115.607 159.221 115.727 159.744 115.969C160.267 116.21 160.696 116.548 161.03 116.983C161.364 117.418 161.571 117.925 161.651 118.504H160.227C160.118 118.082 159.877 117.707 159.502 117.381C159.132 117.051 158.633 116.886 158.005 116.886C157.45 116.886 156.963 117.031 156.544 117.321C156.13 117.607 155.806 118.011 155.572 118.534C155.343 119.054 155.228 119.663 155.228 120.364C155.228 121.08 155.341 121.704 155.566 122.235C155.796 122.766 156.118 123.179 156.532 123.473C156.951 123.766 157.442 123.913 158.005 123.913C158.375 123.913 158.711 123.849 159.013 123.72C159.315 123.591 159.571 123.406 159.78 123.165C159.989 122.923 160.138 122.634 160.227 122.295H161.651C161.571 122.843 161.372 123.336 161.054 123.775C160.74 124.209 160.323 124.555 159.804 124.813C159.289 125.066 158.689 125.193 158.005 125.193ZM168.251 125V115.727H175.544V125H174.119V117.055H169.676V125H168.251ZM181.781 125.193C180.944 125.193 180.209 124.994 179.578 124.596C178.95 124.197 178.459 123.64 178.104 122.923C177.754 122.207 177.579 121.37 177.579 120.412C177.579 119.446 177.754 118.603 178.104 117.882C178.459 117.162 178.95 116.603 179.578 116.204C180.209 115.806 180.944 115.607 181.781 115.607C182.618 115.607 183.351 115.806 183.978 116.204C184.61 116.603 185.101 117.162 185.451 117.882C185.806 118.603 185.983 119.446 185.983 120.412C185.983 121.37 185.806 122.207 185.451 122.923C185.101 123.64 184.61 124.197 183.978 124.596C183.351 124.994 182.618 125.193 181.781 125.193ZM181.781 123.913C182.417 123.913 182.94 123.75 183.351 123.424C183.761 123.098 184.065 122.67 184.262 122.138C184.459 121.607 184.558 121.032 184.558 120.412C184.558 119.792 184.459 119.215 184.262 118.679C184.065 118.144 183.761 117.711 183.351 117.381C182.94 117.051 182.417 116.886 181.781 116.886C181.145 116.886 180.622 117.051 180.211 117.381C179.801 117.711 179.497 118.144 179.3 118.679C179.103 119.215 179.004 119.792 179.004 120.412C179.004 121.032 179.103 121.607 179.3 122.138C179.497 122.67 179.801 123.098 180.211 123.424C180.622 123.75 181.145 123.913 181.781 123.913ZM192.675 125V115.727H199.967V125H198.543V117.055H194.099V125H192.675ZM206.204 125.193C205.367 125.193 204.633 124.994 204.001 124.596C203.373 124.197 202.882 123.64 202.528 122.923C202.178 122.207 202.003 121.37 202.003 120.412C202.003 119.446 202.178 118.603 202.528 117.882C202.882 117.162 203.373 116.603 204.001 116.204C204.633 115.806 205.367 115.607 206.204 115.607C207.041 115.607 207.774 115.806 208.402 116.204C209.034 116.603 209.525 117.162 209.875 117.882C210.229 118.603 210.406 119.446 210.406 120.412C210.406 121.37 210.229 122.207 209.875 122.923C209.525 123.64 209.034 124.197 208.402 124.596C207.774 124.994 207.041 125.193 206.204 125.193ZM206.204 123.913C206.84 123.913 207.363 123.75 207.774 123.424C208.184 123.098 208.488 122.67 208.686 122.138C208.883 121.607 208.981 121.032 208.981 120.412C208.981 119.792 208.883 119.215 208.686 118.679C208.488 118.144 208.184 117.711 207.774 117.381C207.363 117.051 206.84 116.886 206.204 116.886C205.568 116.886 205.045 117.051 204.635 117.381C204.224 117.711 203.92 118.144 203.723 118.679C203.526 119.215 203.427 119.792 203.427 120.412C203.427 121.032 203.526 121.607 203.723 122.138C203.92 122.67 204.224 123.098 204.635 123.424C205.045 123.75 205.568 123.913 206.204 123.913ZM211.459 127.656V123.672H212.231C212.421 123.475 212.584 123.261 212.72 123.032C212.857 122.803 212.976 122.531 213.077 122.217C213.181 121.899 213.27 121.513 213.342 121.058C213.415 120.599 213.479 120.046 213.535 119.398L213.849 115.727H219.741V123.672H221.166V127.656H219.741V125H212.883V127.656H211.459ZM213.849 123.672H218.317V117.055H215.178L214.936 119.398C214.835 120.368 214.711 121.215 214.562 121.939C214.413 122.664 214.175 123.241 213.849 123.672ZM229.807 112.25L230.532 113.119C230.25 113.393 229.924 113.584 229.554 113.693C229.184 113.801 228.765 113.868 228.298 113.892C227.831 113.916 227.312 113.94 226.741 113.964C226.097 113.989 225.563 114.146 225.141 114.435C224.718 114.725 224.392 115.144 224.163 115.691C223.933 116.238 223.787 116.911 223.722 117.707H223.843C224.157 117.128 224.591 116.701 225.147 116.428C225.702 116.154 226.298 116.017 226.934 116.017C227.658 116.017 228.31 116.186 228.89 116.524C229.469 116.862 229.928 117.363 230.266 118.027C230.604 118.691 230.773 119.51 230.773 120.484C230.773 121.454 230.6 122.291 230.254 122.996C229.912 123.7 229.431 124.243 228.811 124.626C228.195 125.004 227.473 125.193 226.644 125.193C225.815 125.193 225.088 124.998 224.465 124.608C223.841 124.213 223.356 123.63 223.01 122.857C222.664 122.08 222.491 121.12 222.491 119.977V118.987C222.491 116.923 222.841 115.357 223.541 114.29C224.245 113.224 225.304 112.673 226.716 112.636C227.215 112.62 227.66 112.616 228.051 112.624C228.441 112.632 228.781 112.614 229.071 112.57C229.361 112.526 229.606 112.419 229.807 112.25ZM226.644 123.913C227.203 123.913 227.684 123.772 228.087 123.491C228.493 123.209 228.805 122.813 229.023 122.301C229.24 121.786 229.349 121.181 229.349 120.484C229.349 119.808 229.238 119.233 229.017 118.758C228.799 118.283 228.487 117.921 228.081 117.671C227.674 117.422 227.187 117.297 226.62 117.297C226.205 117.297 225.833 117.367 225.503 117.508C225.173 117.649 224.891 117.856 224.658 118.13C224.424 118.404 224.243 118.738 224.115 119.132C223.99 119.527 223.923 119.977 223.915 120.484C223.915 121.523 224.159 122.354 224.646 122.978C225.133 123.601 225.799 123.913 226.644 123.913ZM236.588 125.193C235.751 125.193 235.016 124.994 234.384 124.596C233.756 124.197 233.265 123.64 232.911 122.923C232.561 122.207 232.386 121.37 232.386 120.412C232.386 119.446 232.561 118.603 232.911 117.882C233.265 117.162 233.756 116.603 234.384 116.204C235.016 115.806 235.751 115.607 236.588 115.607C237.425 115.607 238.157 115.806 238.785 116.204C239.417 116.603 239.908 117.162 240.258 117.882C240.612 118.603 240.789 119.446 240.789 120.412C240.789 121.37 240.612 122.207 240.258 122.923C239.908 123.64 239.417 124.197 238.785 124.596C238.157 124.994 237.425 125.193 236.588 125.193ZM236.588 123.913C237.224 123.913 237.747 123.75 238.157 123.424C238.568 123.098 238.872 122.67 239.069 122.138C239.266 121.607 239.365 121.032 239.365 120.412C239.365 119.792 239.266 119.215 239.069 118.679C238.872 118.144 238.568 117.711 238.157 117.381C237.747 117.051 237.224 116.886 236.588 116.886C235.952 116.886 235.429 117.051 235.018 117.381C234.608 117.711 234.304 118.144 234.106 118.679C233.909 119.215 233.811 119.792 233.811 120.412C233.811 121.032 233.909 121.607 234.106 122.138C234.304 122.67 234.608 123.098 235.018 123.424C235.429 123.75 235.952 123.913 236.588 123.913ZM242.832 128.477V115.727H244.209V117.2H244.378C244.482 117.039 244.627 116.834 244.812 116.585C245.001 116.331 245.271 116.106 245.621 115.908C245.975 115.707 246.454 115.607 247.058 115.607C247.839 115.607 248.527 115.802 249.123 116.192C249.718 116.583 250.183 117.136 250.517 117.852C250.851 118.569 251.018 119.414 251.018 120.388C251.018 121.37 250.851 122.221 250.517 122.941C250.183 123.658 249.72 124.213 249.129 124.608C248.537 124.998 247.855 125.193 247.082 125.193C246.486 125.193 246.01 125.095 245.651 124.897C245.293 124.696 245.017 124.469 244.824 124.215C244.631 123.958 244.482 123.744 244.378 123.575H244.257V128.477H242.832ZM244.233 120.364C244.233 121.064 244.335 121.682 244.541 122.217C244.746 122.748 245.046 123.165 245.44 123.467C245.834 123.764 246.317 123.913 246.889 123.913C247.485 123.913 247.982 123.756 248.38 123.442C248.783 123.125 249.084 122.698 249.286 122.163C249.491 121.623 249.593 121.024 249.593 120.364C249.593 119.712 249.493 119.124 249.292 118.601C249.094 118.074 248.795 117.657 248.392 117.351C247.994 117.041 247.493 116.886 246.889 116.886C246.309 116.886 245.822 117.033 245.428 117.327C245.034 117.617 244.736 118.023 244.535 118.547C244.333 119.066 244.233 119.671 244.233 120.364ZM253.645 128.477C253.404 128.477 253.188 128.457 252.999 128.417C252.81 128.381 252.679 128.344 252.607 128.308L252.969 127.053C253.315 127.141 253.621 127.173 253.887 127.149C254.152 127.125 254.388 127.006 254.593 126.793C254.802 126.584 254.993 126.244 255.166 125.773L255.432 125.048L252.003 115.727H253.548L256.108 123.116H256.205L258.764 115.727H260.31L256.374 126.352C256.197 126.831 255.977 127.228 255.716 127.542C255.454 127.859 255.15 128.095 254.804 128.248C254.462 128.401 254.076 128.477 253.645 128.477ZM268.132 122.899L272.6 115.727H274.242V125H272.817V117.828L268.374 125H266.708V115.727H268.132V122.899ZM281.368 128.477V115.727H282.745V117.2H282.914C283.019 117.039 283.163 116.834 283.349 116.585C283.538 116.331 283.807 116.106 284.157 115.908C284.512 115.707 284.991 115.607 285.594 115.607C286.375 115.607 287.063 115.802 287.659 116.192C288.255 116.583 288.719 117.136 289.053 117.852C289.387 118.569 289.555 119.414 289.555 120.388C289.555 121.37 289.387 122.221 289.053 122.941C288.719 123.658 288.257 124.213 287.665 124.608C287.073 124.998 286.391 125.193 285.618 125.193C285.023 125.193 284.546 125.095 284.188 124.897C283.829 124.696 283.554 124.469 283.361 124.215C283.167 123.958 283.019 123.744 282.914 123.575H282.793V128.477H281.368ZM282.769 120.364C282.769 121.064 282.872 121.682 283.077 122.217C283.282 122.748 283.582 123.165 283.976 123.467C284.371 123.764 284.854 123.913 285.425 123.913C286.021 123.913 286.518 123.756 286.916 123.442C287.319 123.125 287.621 122.698 287.822 122.163C288.027 121.623 288.13 121.024 288.13 120.364C288.13 119.712 288.029 119.124 287.828 118.601C287.631 118.074 287.331 117.657 286.928 117.351C286.53 117.041 286.029 116.886 285.425 116.886C284.846 116.886 284.359 117.033 283.964 117.327C283.57 117.617 283.272 118.023 283.071 118.547C282.87 119.066 282.769 119.671 282.769 120.364ZM294.324 125.217C293.737 125.217 293.204 125.107 292.725 124.885C292.246 124.66 291.865 124.336 291.584 123.913C291.302 123.487 291.161 122.972 291.161 122.368C291.161 121.837 291.266 121.406 291.475 121.076C291.684 120.742 291.964 120.48 292.314 120.291C292.664 120.102 293.051 119.961 293.473 119.869C293.9 119.772 294.329 119.696 294.759 119.639C295.323 119.567 295.779 119.512 296.13 119.476C296.484 119.436 296.741 119.37 296.902 119.277C297.067 119.184 297.15 119.023 297.15 118.794V118.746C297.15 118.15 296.987 117.687 296.661 117.357C296.339 117.027 295.85 116.862 295.194 116.862C294.514 116.862 293.98 117.011 293.594 117.309C293.208 117.607 292.936 117.925 292.779 118.263L291.427 117.78C291.668 117.216 291.99 116.778 292.393 116.464C292.799 116.146 293.242 115.924 293.721 115.8C294.204 115.671 294.679 115.607 295.146 115.607C295.443 115.607 295.785 115.643 296.172 115.715C296.562 115.784 296.938 115.926 297.301 116.144C297.667 116.361 297.971 116.689 298.212 117.128C298.454 117.567 298.574 118.154 298.574 118.891V125H297.15V123.744H297.077C296.981 123.946 296.82 124.161 296.594 124.39C296.369 124.62 296.069 124.815 295.695 124.976C295.321 125.137 294.864 125.217 294.324 125.217ZM294.542 123.938C295.105 123.938 295.58 123.827 295.967 123.605C296.357 123.384 296.651 123.098 296.848 122.748C297.049 122.398 297.15 122.03 297.15 121.643V120.339C297.089 120.412 296.957 120.478 296.751 120.539C296.55 120.595 296.317 120.645 296.051 120.69C295.789 120.73 295.534 120.766 295.284 120.798C295.039 120.826 294.84 120.851 294.687 120.871C294.316 120.919 293.97 120.998 293.648 121.106C293.33 121.211 293.073 121.37 292.876 121.583C292.682 121.792 292.586 122.078 292.586 122.44C292.586 122.935 292.769 123.31 293.135 123.563C293.505 123.813 293.974 123.938 294.542 123.938ZM307.925 112.25L308.649 113.119C308.368 113.393 308.042 113.584 307.671 113.693C307.301 113.801 306.883 113.868 306.416 113.892C305.949 113.916 305.43 113.94 304.858 113.964C304.214 113.989 303.681 114.146 303.258 114.435C302.836 114.725 302.51 115.144 302.28 115.691C302.051 116.238 301.904 116.911 301.84 117.707H301.961C302.274 117.128 302.709 116.701 303.264 116.428C303.82 116.154 304.416 116.017 305.051 116.017C305.776 116.017 306.428 116.186 307.007 116.524C307.587 116.862 308.046 117.363 308.384 118.027C308.722 118.691 308.891 119.51 308.891 120.484C308.891 121.454 308.718 122.291 308.372 122.996C308.03 123.7 307.549 124.243 306.929 124.626C306.313 125.004 305.591 125.193 304.762 125.193C303.933 125.193 303.206 124.998 302.582 124.608C301.959 124.213 301.474 123.63 301.127 122.857C300.781 122.08 300.608 121.12 300.608 119.977V118.987C300.608 116.923 300.958 115.357 301.659 114.29C302.363 113.224 303.421 112.673 304.834 112.636C305.333 112.62 305.778 112.616 306.168 112.624C306.559 112.632 306.899 112.614 307.188 112.57C307.478 112.526 307.724 112.419 307.925 112.25ZM304.762 123.913C305.321 123.913 305.802 123.772 306.204 123.491C306.611 123.209 306.923 122.813 307.14 122.301C307.358 121.786 307.466 121.181 307.466 120.484C307.466 119.808 307.356 119.233 307.134 118.758C306.917 118.283 306.605 117.921 306.198 117.671C305.792 117.422 305.305 117.297 304.738 117.297C304.323 117.297 303.951 117.367 303.621 117.508C303.291 117.649 303.009 117.856 302.775 118.13C302.542 118.404 302.361 118.738 302.232 119.132C302.107 119.527 302.041 119.977 302.033 120.484C302.033 121.523 302.276 122.354 302.763 122.978C303.25 123.601 303.916 123.913 304.762 123.913ZM314.705 125.193C313.868 125.193 313.134 124.994 312.502 124.596C311.874 124.197 311.383 123.64 311.029 122.923C310.679 122.207 310.504 121.37 310.504 120.412C310.504 119.446 310.679 118.603 311.029 117.882C311.383 117.162 311.874 116.603 312.502 116.204C313.134 115.806 313.868 115.607 314.705 115.607C315.542 115.607 316.275 115.806 316.903 116.204C317.535 116.603 318.026 117.162 318.376 117.882C318.73 118.603 318.907 119.446 318.907 120.412C318.907 121.37 318.73 122.207 318.376 122.923C318.026 123.64 317.535 124.197 316.903 124.596C316.275 124.994 315.542 125.193 314.705 125.193ZM314.705 123.913C315.341 123.913 315.864 123.75 316.275 123.424C316.685 123.098 316.989 122.67 317.186 122.138C317.384 121.607 317.482 121.032 317.482 120.412C317.482 119.792 317.384 119.215 317.186 118.679C316.989 118.144 316.685 117.711 316.275 117.381C315.864 117.051 315.341 116.886 314.705 116.886C314.069 116.886 313.546 117.051 313.136 117.381C312.725 117.711 312.421 118.144 312.224 118.679C312.027 119.215 311.928 119.792 311.928 120.412C311.928 121.032 312.027 121.607 312.224 122.138C312.421 122.67 312.725 123.098 313.136 123.424C313.546 123.75 314.069 123.913 314.705 123.913ZM319.738 117.055V115.727H327.272V117.055H324.229V125H322.805V117.055H319.738ZM332.625 125.193C331.731 125.193 330.96 124.996 330.312 124.602C329.668 124.203 329.171 123.648 328.821 122.935C328.475 122.219 328.302 121.386 328.302 120.436C328.302 119.486 328.475 118.649 328.821 117.925C329.171 117.196 329.658 116.629 330.282 116.222C330.91 115.812 331.643 115.607 332.48 115.607C332.963 115.607 333.44 115.687 333.91 115.848C334.381 116.009 334.81 116.271 335.196 116.633C335.583 116.991 335.891 117.466 336.12 118.058C336.349 118.649 336.464 119.378 336.464 120.243V120.847H329.316V119.615H335.015C335.015 119.092 334.911 118.625 334.701 118.214C334.496 117.804 334.202 117.48 333.82 117.243C333.442 117.005 332.995 116.886 332.48 116.886C331.912 116.886 331.421 117.027 331.007 117.309C330.596 117.587 330.28 117.949 330.059 118.396C329.837 118.842 329.727 119.321 329.727 119.832V120.653C329.727 121.354 329.848 121.947 330.089 122.434C330.335 122.917 330.675 123.286 331.109 123.539C331.544 123.789 332.049 123.913 332.625 123.913C332.999 123.913 333.337 123.861 333.639 123.756C333.945 123.648 334.208 123.487 334.43 123.273C334.651 123.056 334.822 122.786 334.943 122.464L336.319 122.851C336.174 123.318 335.931 123.728 335.589 124.082C335.247 124.433 334.824 124.706 334.321 124.903C333.818 125.097 333.252 125.193 332.625 125.193ZM346.916 125.193C346.046 125.193 345.298 124.988 344.67 124.577C344.042 124.167 343.559 123.601 343.221 122.881C342.883 122.161 342.714 121.338 342.714 120.412C342.714 119.47 342.887 118.639 343.233 117.919C343.583 117.194 344.07 116.629 344.694 116.222C345.322 115.812 346.054 115.607 346.891 115.607C347.543 115.607 348.131 115.727 348.654 115.969C349.177 116.21 349.606 116.548 349.94 116.983C350.274 117.418 350.481 117.925 350.562 118.504H349.137C349.028 118.082 348.787 117.707 348.413 117.381C348.042 117.051 347.543 116.886 346.916 116.886C346.36 116.886 345.873 117.031 345.455 117.321C345.04 117.607 344.716 118.011 344.483 118.534C344.253 119.054 344.139 119.663 344.139 120.364C344.139 121.08 344.251 121.704 344.477 122.235C344.706 122.766 345.028 123.179 345.443 123.473C345.861 123.766 346.352 123.913 346.916 123.913C347.286 123.913 347.622 123.849 347.924 123.72C348.226 123.591 348.481 123.406 348.69 123.165C348.9 122.923 349.049 122.634 349.137 122.295H350.562C350.481 122.843 350.282 123.336 349.964 123.775C349.65 124.209 349.234 124.555 348.715 124.813C348.199 125.066 347.6 125.193 346.916 125.193ZM357.162 125V115.727H364.454V125H363.03V117.055H358.587V125H357.162ZM370.691 125.193C369.822 125.193 369.074 124.988 368.446 124.577C367.818 124.167 367.335 123.601 366.997 122.881C366.659 122.161 366.49 121.338 366.49 120.412C366.49 119.47 366.663 118.639 367.009 117.919C367.359 117.194 367.846 116.629 368.47 116.222C369.098 115.812 369.83 115.607 370.667 115.607C371.319 115.607 371.907 115.727 372.43 115.969C372.953 116.21 373.382 116.548 373.716 116.983C374.05 117.418 374.257 117.925 374.338 118.504H372.913C372.804 118.082 372.563 117.707 372.189 117.381C371.818 117.051 371.319 116.886 370.691 116.886C370.136 116.886 369.649 117.031 369.231 117.321C368.816 117.607 368.492 118.011 368.259 118.534C368.029 119.054 367.914 119.663 367.914 120.364C367.914 121.08 368.027 121.704 368.253 122.235C368.482 122.766 368.804 123.179 369.218 123.473C369.637 123.766 370.128 123.913 370.691 123.913C371.062 123.913 371.398 123.849 371.7 123.72C372.001 123.591 372.257 123.406 372.466 123.165C372.676 122.923 372.824 122.634 372.913 122.295H374.338C374.257 122.843 374.058 123.336 373.74 123.775C373.426 124.209 373.01 124.555 372.49 124.813C371.975 125.066 371.376 125.193 370.691 125.193ZM377.713 122.899L382.181 115.727H383.823V125H382.398V117.828L377.955 125H376.289V115.727H377.713V122.899ZM387.363 115.727L389.584 119.518L391.806 115.727H393.448L390.453 120.364L393.448 125H391.806L389.584 121.402L387.363 125H385.72L388.667 120.364L385.72 115.727H387.363ZM398.734 125.193C397.897 125.193 397.162 124.994 396.53 124.596C395.903 124.197 395.412 123.64 395.057 122.923C394.707 122.207 394.532 121.37 394.532 120.412C394.532 119.446 394.707 118.603 395.057 117.882C395.412 117.162 395.903 116.603 396.53 116.204C397.162 115.806 397.897 115.607 398.734 115.607C399.571 115.607 400.304 115.806 400.931 116.204C401.563 116.603 402.054 117.162 402.404 117.882C402.759 118.603 402.936 119.446 402.936 120.412C402.936 121.37 402.759 122.207 402.404 122.923C402.054 123.64 401.563 124.197 400.931 124.596C400.304 124.994 399.571 125.193 398.734 125.193ZM398.734 123.913C399.37 123.913 399.893 123.75 400.304 123.424C400.714 123.098 401.018 122.67 401.215 122.138C401.412 121.607 401.511 121.032 401.511 120.412C401.511 119.792 401.412 119.215 401.215 118.679C401.018 118.144 400.714 117.711 400.304 117.381C399.893 117.051 399.37 116.886 398.734 116.886C398.098 116.886 397.575 117.051 397.164 117.381C396.754 117.711 396.45 118.144 396.253 118.679C396.056 119.215 395.957 119.792 395.957 120.412C395.957 121.032 396.056 121.607 396.253 122.138C396.45 122.67 396.754 123.098 397.164 123.424C397.575 123.75 398.098 123.913 398.734 123.913ZM404.157 125V123.672H404.495C404.773 123.672 405.005 123.618 405.19 123.509C405.375 123.396 405.524 123.201 405.636 122.923C405.753 122.642 405.842 122.251 405.902 121.752C405.966 121.249 406.013 120.609 406.041 119.832L406.21 115.727H412.392V125H410.967V117.055H407.562L407.417 120.364C407.385 121.124 407.317 121.794 407.212 122.374C407.111 122.949 406.957 123.432 406.747 123.823C406.542 124.213 406.268 124.507 405.926 124.704C405.584 124.901 405.155 125 404.64 125H404.157ZM418.641 125.193C417.804 125.193 417.069 124.994 416.437 124.596C415.809 124.197 415.318 123.64 414.964 122.923C414.614 122.207 414.439 121.37 414.439 120.412C414.439 119.446 414.614 118.603 414.964 117.882C415.318 117.162 415.809 116.603 416.437 116.204C417.069 115.806 417.804 115.607 418.641 115.607C419.478 115.607 420.21 115.806 420.838 116.204C421.47 116.603 421.961 117.162 422.311 117.882C422.665 118.603 422.843 119.446 422.843 120.412C422.843 121.37 422.665 122.207 422.311 122.923C421.961 123.64 421.47 124.197 420.838 124.596C420.21 124.994 419.478 125.193 418.641 125.193ZM418.641 123.913C419.277 123.913 419.8 123.75 420.21 123.424C420.621 123.098 420.925 122.67 421.122 122.138C421.319 121.607 421.418 121.032 421.418 120.412C421.418 119.792 421.319 119.215 421.122 118.679C420.925 118.144 420.621 117.711 420.21 117.381C419.8 117.051 419.277 116.886 418.641 116.886C418.005 116.886 417.482 117.051 417.071 117.381C416.661 117.711 416.357 118.144 416.16 118.679C415.962 119.215 415.864 119.792 415.864 120.412C415.864 121.032 415.962 121.607 416.16 122.138C416.357 122.67 416.661 123.098 417.071 123.424C417.482 123.75 418.005 123.913 418.641 123.913ZM430.608 115.727V117.055H426.31V125H424.885V115.727H430.608ZM435.842 125.193C435.005 125.193 434.27 124.994 433.638 124.596C433.01 124.197 432.519 123.64 432.165 122.923C431.815 122.207 431.64 121.37 431.64 120.412C431.64 119.446 431.815 118.603 432.165 117.882C432.519 117.162 433.01 116.603 433.638 116.204C434.27 115.806 435.005 115.607 435.842 115.607C436.679 115.607 437.411 115.806 438.039 116.204C438.671 116.603 439.162 117.162 439.512 117.882C439.866 118.603 440.043 119.446 440.043 120.412C440.043 121.37 439.866 122.207 439.512 122.923C439.162 123.64 438.671 124.197 438.039 124.596C437.411 124.994 436.679 125.193 435.842 125.193ZM435.842 123.913C436.478 123.913 437.001 123.75 437.411 123.424C437.822 123.098 438.126 122.67 438.323 122.138C438.52 121.607 438.619 121.032 438.619 120.412C438.619 119.792 438.52 119.215 438.323 118.679C438.126 118.144 437.822 117.711 437.411 117.381C437.001 117.051 436.478 116.886 435.842 116.886C435.206 116.886 434.683 117.051 434.272 117.381C433.862 117.711 433.558 118.144 433.36 118.679C433.163 119.215 433.065 119.792 433.065 120.412C433.065 121.032 433.163 121.607 433.36 122.138C433.558 122.67 433.862 123.098 434.272 123.424C434.683 123.75 435.206 123.913 435.842 123.913ZM447.157 123.068L450.393 115.727H451.745L447.737 125H446.578L442.642 115.727H443.97L447.157 123.068ZM443.511 115.727V125H442.086V115.727H443.511ZM450.804 125V115.727H452.228V125H450.804Z" fill="black"/>
</svg>
