<svg width="421" height="383" viewBox="0 0 421 383" fill="none" xmlns="http://www.w3.org/2000/svg">
<path d="M391.072 67.1523C407.604 77.8636 427.648 116.448 435.69 134.617V383.41H421.554C314.07 383.41 206.747 364.73 120.914 300.036C99.7845 284.111 80.4026 269.719 62.9527 260.371C12.2893 233.23 18.7686 207.881 43.0514 197.946C62.5682 189.961 125.587 227.507 158.734 251.715C159.747 252.455 159.787 253.939 158.882 254.808C133.149 279.521 149.156 286.922 160.661 287.512C193.358 291.599 207.249 255.403 210.782 233.531C210.947 232.506 212.412 232.325 212.799 233.289C228.393 272.103 258.597 344.736 265.607 351.746C274.654 360.793 284.606 361.698 294.557 354.46C302.519 348.67 301.493 338.175 299.986 333.652C284.606 298.067 254.931 225.992 259.274 222.373C264.702 217.85 310.842 328.224 318.08 345.413C325.317 362.602 342.507 371.649 354.268 361.698C366.029 351.746 359.695 334.556 358.79 330.938C357.886 327.319 299.985 215.136 304.508 211.517C307.757 208.917 340.421 268.843 361.248 308.397C365.581 316.625 371.813 324.397 380.81 326.747C394.681 330.369 400.863 322.014 403.058 312.712C404.687 305.811 402.14 298.82 398.541 292.711C375.534 253.665 338.694 189.523 340.696 186.185C343.41 181.661 360.6 211.517 374.17 233.23C387.741 254.942 401.312 253.133 410.359 244.991C417.596 238.477 415.787 230.214 413.977 226.897L371.711 154.174C358.916 132.159 342.907 110.969 338.132 85.9567C335.272 70.9764 334.802 54.6035 337.982 42.3371C344.315 17.9101 380.503 -5.61216 392.264 4.33958C401.548 12.1954 395.153 48.2976 390.636 66.0581C390.527 66.4852 390.702 66.9126 391.072 67.1523Z" stroke="#39442B" stroke-width="3"/>
<path d="M14.1016 140.95L161.879 245.996C163.213 246.944 165.066 246.657 165.825 245.207C173.517 230.513 172.815 194.62 171.111 173.548C170.828 170.047 169.087 166.875 166.325 164.706C132.801 138.38 68.151 90.1893 46.6718 83.9535C18.7479 75.8465 -9.58652 112.67 8.6818 135.291C10.5032 137.547 12.3898 139.466 14.1016 140.95Z" stroke="#39442B" stroke-width="3"/>
<path d="M45.4064 69.3631L159.787 147.304C160.572 147.838 161.582 147.095 161.278 146.196C153.779 123.984 136.473 89.3136 119.758 63.4402C101.43 35.0672 64.5721 -15.2691 32.9074 8.25323C21.8807 16.4445 17.4252 24.9329 16.5562 32.5544C14.6738 49.0628 31.6757 60.0068 45.4064 69.3631Z" stroke="#39442B" stroke-width="3"/>
</svg>
