<?xml version="1.0" encoding="UTF-8" standalone="no" ?>
<!DOCTYPE svg PUBLIC "-//W3C//DTD SVG 1.1//EN" "http://www.w3.org/Graphics/SVG/1.1/DTD/svg11.dtd">

<svg xmlns="http://www.w3.org/2000/svg" xmlns:xlink="http://www.w3.org/1999/xlink" version="1.1" width="40" height="40" viewBox="0 0 40 40" xml:space="preserve">
<desc>Created with Fabric.js 5.2.4</desc>
<defs>
</defs>
<rect x="0" y="0" width="100%" height="100%" fill="transparent"></rect>
<g transform="matrix(0 0 0 0 0 0)" id="3dadbd4c-0526-4c7a-bfd7-f00d016843b4"  >
</g>
<g transform="matrix(1 0 0 1 20 20)" id="687710f0-3153-4725-a867-afddff83c454"  >
<rect style="stroke: none; stroke-width: 1; stroke-dasharray: none; stroke-linecap: butt; stroke-dashoffset: 0; stroke-linejoin: miter; stroke-miterlimit: 4; fill: rgb(255, 255, 255); fill-rule: nonzero; opacity: 1; visibility: hidden;" vector-effect="non-scaling-stroke"  x="-20" y="-20" rx="0" ry="0" width="40" height="40" />
</g>
<g transform="matrix(2.18 0 0 2.66 20.02 20.02)"  >
<path style="stroke: rgb(0,0,0); stroke-width: 0; stroke-dasharray: none; stroke-linecap: butt; stroke-dashoffset: 0; stroke-linejoin: miter; stroke-miterlimit: 4; fill: rgb(57, 68, 43); fill-rule: nonzero; opacity: 1;" vector-effect="non-scaling-stroke"  transform=" translate(-12, -11.99)" d="M 16.114 9.291 C 16.666 8.739 17.214000000000002 7.4510000000000005 14.914000000000001 9.015 C 12.765457695186393 10.49367769110756 10.602352031197249 11.951082216143835 8.425000000000026 13.386999999999958 C 7.755034045866838 13.689949677433622 6.990492902797923 13.706562286116272 6.308000000000001 13.433 C 4.928000000000001 13.019 3.3170000000000006 12.467 3.3170000000000006 12.467 C 3.3170000000000006 12.467 2.2170000000000005 11.776 4.1000000000000005 11.040000000000001 C 4.1000000000000005 11.040000000000001 12.061 7.7730000000000015 14.822 6.622000000000001 C 15.879999999999999 6.162000000000001 19.469 4.690000000000001 19.469 4.690000000000001 C 19.469 4.690000000000001 21.126 4.045000000000002 20.988 5.610000000000001 C 20.942 6.254000000000001 20.573999999999998 8.510000000000002 20.206 10.948 C 19.653 14.399000000000001 19.055 18.173000000000002 19.055 18.173000000000002 C 19.055 18.173000000000002 18.963 19.231 18.181 19.415000000000003 C 17.343883784165186 19.40083203229033 16.53506063297945 19.10965569786347 15.881 18.587000000000003 C 15.697000000000001 18.449 12.43 16.378000000000004 11.233 15.366000000000003 C 10.98551529201437 15.198349399635385 10.841153336959552 14.915614311667289 10.850483813613707 14.616836222285292 C 10.859814290267863 14.318058132903296 11.021536686968973 14.044881687284672 11.279 13.893000000000002 C 12.920751774658672 12.390921893270972 14.532731630676537 10.856623796602046 16.114000000000008 9.290999999999984 Z" stroke-linecap="round" />
</g>
</svg>