<svg width="203" height="203" viewBox="0 0 203 203" fill="none" xmlns="http://www.w3.org/2000/svg">
<path d="M70.1543 91.947C76.1741 98.5688 92.3904 108.104 113.948 100.86C121.137 98.4448 125.956 91.9489 132.12 87.531C135.516 85.097 139.225 84.3649 142.1 88.3647M142.1 88.3647C140.01 90.4544 137.92 95.2309 137.025 96.7235M142.1 88.3647C145.981 88.9618 149.563 91.0515 149.563 96.1264M149.563 96.1264L142.1 102.097M149.563 96.1264C153.046 96.3255 158.34 98.6341 151.653 106.276C143.294 115.829 128.368 130.457 97.0219 128.069" stroke="black" stroke-width="3" stroke-linecap="round" stroke-linejoin="round"/>
<path d="M54.6307 114.205C57.9919 109.399 62.7606 109.78 67.0081 112.188C73.6111 115.93 78.5197 122.525 85.6422 125.147C95.1636 128.653 103.78 129.093 111.053 127.771M54.6307 114.205C56.9285 116.567 58.5116 117.621 61.4074 120.879M54.6307 114.205C52.541 112.546 47.1675 115.232 47.621 120.204M47.621 120.204L55.8272 126.952M47.621 120.204C43.7914 120.429 40.2682 126.896 47.621 135.532C56.8119 146.328 104.784 175.535 154.041 136.726" stroke="black" stroke-width="3" stroke-linecap="round" stroke-linejoin="round"/>
<circle cx="101.5" cy="101.5" r="100" stroke="black" stroke-width="3"/>
<circle cx="44.481" cy="66.5721" r="3.88088" fill="black"/>
<circle cx="166.281" cy="70.1544" r="3.88088" fill="black"/>
</svg>
