<svg width="425" height="269" viewBox="0 0 425 269" fill="none" xmlns="http://www.w3.org/2000/svg">
<circle cx="291.611" cy="136.449" r="131.051" stroke="black" stroke-width="3"/>
<circle cx="217.149" cy="90.8362" r="5.06812" fill="black"/>
<circle cx="376.21" cy="95.5144" r="5.06812" fill="black"/>
<path d="M4 149.608C11.0194 158.582 33.1799 173.071 59.3046 162.379C66.3001 159.516 70.9002 153.083 76.0926 147.59C80.45 142.98 85.6355 140.493 89.4968 146.737M89.4968 146.737C87.1221 149.497 84.7474 155.806 83.7297 157.777M89.4968 146.737C93.9069 147.526 97.9778 150.286 97.9778 156.989M97.9778 156.989L89.4968 164.874M97.9778 156.989C101.936 157.251 107.952 160.3 100.353 170.394C90.8537 183.011 71.8169 207.88 36.1965 204.726C26.3418 203.853 17.6284 194.839 16 192" stroke="black" stroke-width="3" stroke-linecap="round" stroke-linejoin="round"/>
<path d="M422 150.714C414.126 159.929 389.088 174.868 359.69 163.338C352.623 160.566 347.706 154.385 342.338 149.019C337.429 144.112 331.492 141.295 327.099 147.798M327.099 147.798C329.734 150.602 332.37 157.012 333.5 159.015M327.099 147.798C322.203 148.599 317.685 151.403 317.685 158.214M317.685 158.214L327.099 166.227M317.685 158.214C313.291 158.481 306.614 161.58 315.049 171.836C325.592 184.656 346.723 209.927 386.262 206.722C397.201 205.835 406.193 199.385 408 196.5" stroke="black" stroke-width="3" stroke-linecap="round" stroke-linejoin="round"/>
<circle cx="132.551" cy="132.551" r="131.051" stroke="black" stroke-width="3"/>
<circle cx="58.0886" cy="86.9377" r="5.06812" fill="black"/>
<circle cx="217.149" cy="91.616" r="5.06812" fill="black"/>
<path d="M122 109C126.024 121.122 139 122 144 109" stroke="black" stroke-width="3" stroke-linecap="round"/>
<path d="M281 109C285.024 121.122 298 122 303 109" stroke="black" stroke-width="3" stroke-linecap="round"/>
</svg>
