<svg width="222" height="134" viewBox="0 0 222 134" fill="none" xmlns="http://www.w3.org/2000/svg">
<path d="M86.1682 80.5H43.8341C31.4849 80.5 20.9121 77.0592 13.4476 70.4764C6.00967 63.9169 1.5 54.1001 1.5 41C1.5 27.8999 6.00967 18.0831 13.4476 11.5236C20.9121 4.94078 31.4849 1.5 43.8341 1.5C56.1833 1.5 66.7561 4.94078 74.2206 11.5236C81.6585 18.0831 86.1682 27.8999 86.1682 41V80.5Z" stroke="black" stroke-width="3"/>
<path d="M109.5 131.698H165C181.15 131.698 195.021 127.342 204.83 118.971C214.606 110.626 220.5 98.1642 220.5 81.5991C220.5 65.0341 214.606 52.5718 204.83 44.2278C195.021 35.8561 181.15 31.5 165 31.5C148.85 31.5 134.979 35.8561 125.171 44.2278C115.394 52.5718 109.5 65.0341 109.5 81.5991V131.698Z" stroke="black" stroke-width="3"/>
<circle cx="29.0681" cy="42.0681" r="5.06812" fill="black"/>
<circle cx="44.2048" cy="42.0681" r="5.06812" fill="black"/>
<circle cx="59.3416" cy="42.0681" r="5.06812" fill="black"/>
<circle cx="143.068" cy="76.0681" r="5.06812" fill="black"/>
<circle cx="185.068" cy="76.0681" r="5.06812" fill="black"/>
<path d="M156 94L156.352 94.5803C160.446 101.339 170.359 101.013 174 94V94" stroke="black" stroke-width="3" stroke-linecap="round" stroke-linejoin="round"/>
</svg>
