<svg width="296" height="159" viewBox="0 0 296 159" fill="none" xmlns="http://www.w3.org/2000/svg">
<path d="M2 112.844C14.8152 134.96 56.9322 177.499 111.657 146.018C169.326 112.844 127.203 48.5418 91.9977 56.3075C22.0966 71.7262 87.192 227.786 214.762 102.097" stroke="black" stroke-width="3" stroke-linecap="round" stroke-dasharray="35 35"/>
<path d="M233.89 99L203.272 69.3051M233.89 99L224.535 80.2881M233.89 99L237.292 83.5789M203.272 69.3051L165 56.2881L293 3M203.272 69.3051L293 3M293 3L224.535 80.2881M293 3C281.944 27.8136 261.021 75.0814 262.382 90.0508L237.292 83.5789M224.535 80.2881L237.292 83.5789" stroke="black" stroke-width="3" stroke-linecap="round"/>
</svg>
