<svg width="18" height="14" viewBox="0 0 18 14" fill="none" xmlns="http://www.w3.org/2000/svg">
<path fill-rule="evenodd" clip-rule="evenodd" d="M17.404 0.575021C17.5911 0.759432 17.74 0.978903 17.8423 1.2209C17.9446 1.46289 17.9982 1.72266 18.0001 1.98538C18.0019 2.24809 17.952 2.5086 17.8532 2.75201C17.7543 2.99543 17.6085 3.21698 17.424 3.40402L7.57297 13.404C7.38687 13.593 7.16505 13.7431 6.92041 13.8455C6.67577 13.9479 6.41319 14.0007 6.14797 14.0007C5.88275 14.0007 5.62018 13.9479 5.37554 13.8455C5.13089 13.7431 4.90907 13.593 4.72297 13.404L0.574972 9.19402C0.202608 8.81609 -0.00437136 8.30571 -0.000433092 7.77517C0.00350518 7.24463 0.218038 6.73739 0.595972 6.36502C0.973905 5.99266 1.48428 5.78568 2.01482 5.78962C2.54536 5.79355 3.05261 6.00809 3.42497 6.38602L6.14797 9.15002L14.575 0.596022C14.7594 0.4089 14.9789 0.259944 15.2208 0.157664C15.4628 0.0553846 15.7226 0.0017852 15.9853 -7.20879e-05C16.248 -0.00192938 16.5085 0.0479915 16.752 0.14684C16.9954 0.245688 17.2169 0.391526 17.404 0.576022V0.575021Z" fill="#3E8CF7"/>
</svg>
