<svg xmlns="http://www.w3.org/2000/svg" width="117" height="123" viewBox="0 0 117 123" version="1.1"><path d="M 92.405 13.155 C 91.962 13.870, 92.130 14.038, 92.845 13.595 C 93.480 13.203, 94 12.684, 94 12.441 C 94 11.607, 93.117 12.002, 92.405 13.155 M 40 28.500 C 41.292 29.875, 42.574 31, 42.849 31 C 43.124 31, 42.292 29.875, 41 28.500 C 39.708 27.125, 38.426 26, 38.151 26 C 37.876 26, 38.708 27.125, 40 28.500 M 74.946 29.750 L 71.500 33.500 75.250 30.054 C 78.740 26.846, 79.460 26, 78.696 26 C 78.529 26, 76.842 27.688, 74.946 29.750 M 69.405 61.155 C 68.962 61.870, 69.130 62.038, 69.845 61.595 C 70.480 61.203, 71 60.684, 71 60.441 C 71 59.607, 70.117 60.002, 69.405 61.155 M 38 76 C 38 76.733, 38.300 77.033, 38.667 76.667 C 39.033 76.300, 39.033 75.700, 38.667 75.333 C 38.300 74.967, 38 75.267, 38 76 M 44.405 81.250 L 42.500 83.500 44.750 81.595 C 45.987 80.547, 47 79.535, 47 79.345 C 47 78.545, 46.195 79.136, 44.405 81.250 M 71.500 81 C 72.495 82.100, 73.535 83, 73.810 83 C 74.085 83, 73.495 82.100, 72.500 81 C 71.505 79.900, 70.465 79, 70.190 79 C 69.915 79, 70.505 79.900, 71.500 81 M 72.500 91 C 72.840 91.550, 73.343 92, 73.618 92 C 73.893 92, 73.840 91.550, 73.500 91 C 73.160 90.450, 72.657 90, 72.382 90 C 72.107 90, 72.160 90.450, 72.500 91 M 53 97 C 53 97.733, 53.300 98.033, 53.667 97.667 C 54.033 97.300, 54.033 96.700, 53.667 96.333 C 53.300 95.967, 53 96.267, 53 97 M 92.500 110 C 92.840 110.550, 93.343 111, 93.618 111 C 93.893 111, 93.840 110.550, 93.500 110 C 93.160 109.450, 92.657 109, 92.382 109 C 92.107 109, 92.160 109.450, 92.500 110" stroke="none" fill="#dcecfc" fill-rule="evenodd"/><path d="M 57.481 4.183 C 56.591 9.542, 56.282 11.222, 55.034 17.500 C 54.487 20.250, 53.781 24.075, 53.465 26 C 53.149 27.925, 52.518 31.165, 52.063 33.201 C 51.607 35.236, 51.482 37.149, 51.784 37.451 C 52.086 37.753, 51.886 38, 51.340 38 C 50.793 38, 44.193 32.110, 36.673 24.912 C 29.153 17.714, 23.026 12.426, 23.057 13.162 C 23.088 13.898, 26.630 21.700, 30.927 30.500 C 35.225 39.300, 38.612 46.650, 38.454 46.833 C 38.161 47.173, 7.950 43.422, 2.500 42.369 C -1.638 41.569, 0.020 43.063, 8 47.323 C 15.104 51.115, 33.330 61.139, 33.782 61.504 C 33.937 61.628, 26.737 65.675, 17.782 70.495 C 8.827 75.316, 1.313 79.426, 1.083 79.630 C -0.019 80.609, 2.023 80.690, 7.500 79.885 C 10.800 79.399, 15.525 78.763, 18 78.471 C 29.660 77.093, 37.284 75.943, 38.102 75.437 C 38.596 75.132, 39 75.090, 39 75.345 C 39 75.600, 35.202 83.726, 30.560 93.404 C 25.918 103.082, 22.365 111, 22.664 111 C 22.964 111, 29.398 105.150, 36.963 98 C 44.527 90.850, 50.909 85, 51.145 85 C 51.381 85, 51.680 86.463, 51.808 88.250 C 51.936 90.038, 52.465 92.850, 52.983 94.500 C 53.501 96.150, 54.175 99.694, 54.481 102.375 C 54.786 105.056, 55.216 107.541, 55.436 107.896 C 55.655 108.251, 56.111 110.558, 56.449 113.021 C 57.363 119.697, 58.140 123.193, 58.605 122.729 C 58.832 122.501, 60.541 114.118, 62.401 104.099 C 64.261 94.081, 65.958 85.709, 66.172 85.495 C 66.386 85.281, 71.722 90.046, 78.030 96.084 C 96.496 113.759, 96.266 113.832, 86.480 93.429 C 81.816 83.705, 78 75.629, 78 75.481 C 78 75.334, 79.688 75.580, 81.750 76.029 C 83.813 76.479, 87.750 77.089, 90.500 77.387 C 93.250 77.684, 100.207 78.599, 105.959 79.421 C 111.712 80.242, 116.572 80.761, 116.760 80.573 C 116.948 80.385, 109.406 76.077, 100 71 C 90.594 65.923, 83.054 61.613, 83.245 61.422 C 83.435 61.231, 90.771 57.188, 99.546 52.438 C 115.872 43.599, 121.230 40.084, 115.455 41.999 C 111.871 43.188, 79.957 47.290, 79.311 46.645 C 79.059 46.393, 80.408 42.882, 82.307 38.843 C 84.207 34.804, 87.825 27.112, 90.348 21.750 C 92.871 16.387, 94.736 12, 94.493 12 C 94.250 12, 87.895 17.856, 80.372 25.013 C 72.849 32.171, 66.488 37.822, 66.238 37.571 C 65.988 37.321, 64.261 28.919, 62.401 18.901 C 60.541 8.882, 58.834 0.501, 58.609 0.275 C 58.383 0.050, 57.876 1.808, 57.481 4.183 M 57.058 42.495 C 56.362 47.173, 55.568 51, 55.293 51 C 55.019 51, 52.528 48.963, 49.758 46.472 C 46.988 43.982, 44.530 42.137, 44.296 42.371 C 44.061 42.606, 45.274 45.580, 46.991 48.982 L 50.112 55.165 43.306 54.538 C 39.563 54.193, 35.600 53.677, 34.500 53.391 C 33.400 53.105, 35.875 54.743, 40 57.030 C 44.125 59.318, 47.659 61.343, 47.852 61.530 C 48.046 61.718, 45.009 63.481, 41.102 65.448 C 37.196 67.416, 34 69.168, 34 69.342 C 34 69.516, 36.969 69.261, 40.597 68.774 C 50.397 67.461, 50.363 67.419, 46.386 76 L 42.909 83.500 48.734 77.750 C 51.937 74.588, 54.827 72, 55.157 72 C 55.486 72, 56.318 75.617, 57.006 80.038 C 57.694 84.460, 58.400 87.933, 58.575 87.758 C 58.751 87.583, 59.156 85.878, 59.477 83.970 C 59.798 82.061, 60.363 78.925, 60.732 77 C 61.102 75.075, 61.314 73.162, 61.202 72.750 C 60.700 70.888, 62.876 72.428, 68.266 77.750 L 74.091 83.500 72.433 79.500 C 71.521 77.300, 69.884 73.750, 68.796 71.612 L 66.818 67.724 74.159 68.405 L 81.500 69.087 78.507 67.064 C 76.861 65.952, 74.257 64.521, 72.720 63.884 C 71.182 63.247, 70.080 62.225, 70.269 61.613 C 70.458 61.001, 73.738 58.780, 77.557 56.677 C 81.375 54.575, 83.759 53.081, 82.852 53.357 C 81.946 53.633, 77.972 54.177, 74.021 54.567 L 66.837 55.275 70.510 47.981 L 74.183 40.687 70.341 43.733 C 68.229 45.409, 65.643 47.729, 64.595 48.890 C 62.724 50.963, 60.816 51.725, 61.190 50.250 C 61.295 49.837, 61.084 48.150, 60.722 46.500 C 60.359 44.850, 59.785 41.475, 59.446 39 C 59.108 36.525, 58.716 34.385, 58.577 34.245 C 58.438 34.105, 57.754 37.817, 57.058 42.495" stroke="none" fill="#d4ecfc" fill-rule="evenodd"/></svg>