<svg width="117" height="123" viewBox="0 0 117 123" fill="none" xmlns="http://www.w3.org/2000/svg">
<path d="M67.8241 41.335L84.9744 25.0611L74.7967 46.401L72.4184 51.3877L77.896 50.6667L101.336 47.5816L80.5593 58.8636L75.7041 61.5L80.5593 64.1364L101.336 75.4184L77.896 72.3333L72.4184 71.6123L74.7967 76.599L84.9744 97.9389L67.8241 81.665L63.8164 77.8621L62.8093 83.2944L58.5 106.541L54.1907 83.2944L53.1836 77.8621L49.1759 81.665L32.0256 97.9389L42.2033 76.599L44.5816 71.6123L39.104 72.3333L15.6635 75.4184L36.4407 64.1364L41.2959 61.5L36.4407 58.8636L15.6635 47.5816L39.104 50.6667L44.5816 51.3877L42.2033 46.401L32.0256 25.0611L49.1759 41.335L53.1836 45.1379L54.1907 39.7056L58.5 16.4591L62.8093 39.7056L63.8164 45.1379L67.8241 41.335Z" stroke="#DBEAFE" stroke-width="6"/>
</svg>
