<svg width="78" height="73" viewBox="0 0 78 73" fill="none" xmlns="http://www.w3.org/2000/svg">
<path fill-rule="evenodd" clip-rule="evenodd" d="M39.8848 0.101713C45.076 0.732061 48.951 5.00333 53.7097 7.18213C58.4292 9.34301 64.081 9.52996 67.9814 12.9661C71.9652 16.4757 74.1812 21.5978 75.8211 26.6615C77.4615 31.7267 78.7424 37.1967 77.5063 42.3766C76.2941 47.4559 71.3078 50.6208 68.988 55.2946C66.5057 60.2956 67.7207 67.4195 63.3574 70.8828C59.0386 74.3108 52.6259 72.5121 47.1251 72.648C42.3065 72.7671 37.6523 72.1402 32.8584 71.6362C27.6276 71.0863 22.2065 71.6582 17.3952 69.5226C12.2499 67.2388 7.2978 63.8452 4.39457 59.002C1.48363 54.146 1.83677 48.1223 1.19037 42.49C0.539163 36.8156 -0.734674 31.1159 0.555845 25.5532C1.88297 19.8328 4.37134 14.1174 8.69041 10.1617C12.9458 6.2643 19.0074 5.40158 24.4887 3.6339C29.5565 1.99956 34.6011 -0.539876 39.8848 0.101713Z" fill="#DBEAFE"/>
</svg>
