<svg width="25" height="24" viewBox="0 0 25 24" fill="none" xmlns="http://www.w3.org/2000/svg">
<path d="M22.4375 7.5H2.5625C2.25313 7.5 2 7.24687 2 6.9375V5.25C2 4.00781 3.00781 3 4.25 3H6.5V0.5625C6.5 0.253125 6.75313 0 7.0625 0H8.9375C9.24687 0 9.5 0.253125 9.5 0.5625V3H15.5V0.5625C15.5 0.253125 15.7531 0 16.0625 0H17.9375C18.2469 0 18.5 0.253125 18.5 0.5625V3H20.75C21.9922 3 23 4.00781 23 5.25V6.9375C23 7.24687 22.7469 7.5 22.4375 7.5ZM2.5625 9H22.4375C22.7469 9 23 9.25313 23 9.5625V21.75C23 22.9922 21.9922 24 20.75 24H4.25C3.00781 24 2 22.9922 2 21.75V9.5625C2 9.25313 2.25313 9 2.5625 9ZM17.375 15.5625C17.375 15.2531 17.1219 15 16.8125 15H14V12.1875C14 11.8781 13.7469 11.625 13.4375 11.625H11.5625C11.2531 11.625 11 11.8781 11 12.1875V15H8.1875C7.87813 15 7.625 15.2531 7.625 15.5625V17.4375C7.625 17.7469 7.87813 18 8.1875 18H11V20.8125C11 21.1219 11.2531 21.375 11.5625 21.375H13.4375C13.7469 21.375 14 21.1219 14 20.8125V18H16.8125C17.1219 18 17.375 17.7469 17.375 17.4375V15.5625Z" fill="black"/>
</svg>
